#define sisyphus_width 64
#define sisyphus_height 54
static char sisyphus_bits[] = {
   0x00, 0x00, 0x00, 0x00, 0x00, 0x00, 0x00, 0x00, 0x00, 0x00, 0x00, 0x00,
   0x00, 0x00, 0x00, 0x00, 0x00, 0x00, 0x00, 0x00, 0x00, 0x00, 0x00, 0x00,
   0x00, 0x00, 0x00, 0x00, 0x00, 0x00, 0x00, 0x00, 0x00, 0x00, 0x00, 0x00,
   0x00, 0x00, 0x00, 0x00, 0x00, 0x00, 0x00, 0x00, 0x00, 0x00, 0x00, 0x00,
   0x00, 0x00, 0x00, 0x00, 0x00, 0x00, 0x00, 0x00, 0x00, 0x00, 0x00, 0x00,
   0x00, 0x00, 0x00, 0x00, 0x00, 0x00, 0x00, 0x00, 0x00, 0x00, 0x00, 0x00,
   0x00, 0x00, 0x00, 0x00, 0x00, 0x00, 0x00, 0x00, 0x00, 0x00, 0x00, 0x00,
   0x00, 0x00, 0x00, 0x00, 0x00, 0x00, 0x00, 0x00, 0x00, 0x00, 0x00, 0x00,
   0x00, 0x00, 0x00, 0x00, 0x00, 0x00, 0x00, 0x00, 0x00, 0x00, 0x00, 0x00,
   0x00, 0x00, 0x00, 0x00, 0x00, 0x00, 0x00, 0x00, 0x00, 0x00, 0x00, 0x00,
   0x00, 0x00, 0x00, 0x00, 0x00, 0x80, 0x3f, 0x00, 0x00, 0x00, 0x00, 0x00,
   0x00, 0x60, 0xc2, 0x00, 0x00, 0x40, 0x01, 0x00, 0x00, 0x18, 0x00, 0x03,
   0x00, 0x20, 0x02, 0x00, 0x00, 0xcc, 0xa0, 0x04, 0x00, 0x20, 0x02, 0x00,
   0x00, 0x02, 0x40, 0x04, 0x08, 0x60, 0x03, 0x00, 0x00, 0x02, 0x00, 0x0a,
   0x1c, 0xc0, 0x01, 0x00, 0x00, 0x65, 0x98, 0x11, 0x1c, 0xe0, 0x03, 0x00,
   0x00, 0x41, 0x00, 0x14, 0x3e, 0xe0, 0x02, 0x02, 0x00, 0x0b, 0x8e, 0x33,
   0x08, 0xe0, 0x03, 0x0a, 0x80, 0x05, 0x40, 0x28, 0x08, 0xc0, 0x01, 0x2a,
   0x80, 0x21, 0x00, 0x36, 0x08, 0xe0, 0x01, 0x2a, 0x80, 0x8b, 0xed, 0x31,
   0x08, 0xf0, 0x03, 0x2c, 0x86, 0x53, 0x10, 0x3b, 0xd0, 0xf0, 0x07, 0x34,
   0x8d, 0xfd, 0xfd, 0x3f, 0x30, 0xf9, 0x0f, 0x04, 0x09, 0x27, 0x8e, 0x3b,
   0x10, 0xf9, 0xff, 0x07, 0x06, 0xff, 0xff, 0x1f, 0x30, 0xfd, 0xfb, 0x07,
   0xc6, 0xdf, 0xf3, 0x1d, 0xf0, 0xec, 0x03, 0x02, 0x39, 0x3e, 0xbf, 0x0f,
   0x10, 0xec, 0x03, 0x02, 0xfd, 0xff, 0xfb, 0x0f, 0x10, 0xec, 0x03, 0x01,
   0x09, 0xfc, 0xff, 0x07, 0x20, 0xec, 0x03, 0x81, 0x08, 0xf8, 0xff, 0xc3,
   0x20, 0xfc, 0x03, 0x81, 0x08, 0xe0, 0xff, 0x39, 0x40, 0xf8, 0x83, 0x80,
   0x08, 0x80, 0xff, 0x07, 0x80, 0xf7, 0x87, 0xc0, 0x07, 0x00, 0x7c, 0x00,
   0x00, 0xf0, 0x87, 0xe0, 0x06, 0xe0, 0x07, 0x00, 0x00, 0x60, 0x4f, 0x60,
   0x06, 0x3e, 0x00, 0x00, 0x00, 0x60, 0x4e, 0x30, 0xee, 0x03, 0x00, 0x00,
   0x00, 0x70, 0x4c, 0x70, 0x3f, 0x00, 0x00, 0x00, 0x00, 0x30, 0x04, 0xf0,
   0x03, 0x00, 0x00, 0x00, 0x00, 0x10, 0x0c, 0x3e, 0x00, 0x00, 0x00, 0x00,
   0x00, 0x30, 0xdc, 0x03, 0x00, 0x00, 0x00, 0x00, 0x00, 0x70, 0x3e, 0x00,
   0x00, 0x00, 0x00, 0x00, 0x00, 0xf0, 0x03, 0x00, 0x00, 0x00, 0x00, 0x00,
   0x00, 0x3e, 0x00, 0x00, 0x00, 0x00, 0x00, 0x00, 0xc0, 0x03, 0x00, 0x00,
   0x00, 0x00, 0x00, 0x00, 0x3c, 0x00, 0x00, 0x00, 0x00, 0x00, 0x00, 0x00,
   0x03, 0x00, 0x00, 0x00, 0x00, 0x00, 0x00, 0x00, 0x00, 0x00, 0x00, 0x00,
   0x00, 0x00, 0x00, 0x00, 0x00, 0x00, 0x00, 0x00, 0x00, 0x00, 0x00, 0x00};
